<mxfile host="65bd71144e" scale="1" border="10">
    <diagram id="-rriOPSDnHkLpZKLwRpb" name="Page-1">
        <mxGraphModel dx="2973" dy="1318" grid="1" gridSize="10" guides="1" tooltips="1" connect="1" arrows="1" fold="1" page="1" pageScale="1" pageWidth="850" pageHeight="1100" background="#FFFFFF" math="0" shadow="0">
            <root>
                <mxCell id="0"/>
                <mxCell id="1" parent="0"/>
                <mxCell id="438" value="" style="endArrow=oval;html=1;fillStyle=auto;strokeWidth=1;startSize=6;endSize=6;fillColor=#000000;startArrow=none;startFill=0;endFill=0;" edge="1" parent="1" source="442">
                    <mxGeometry width="50" height="50" relative="1" as="geometry">
                        <mxPoint x="-2045.0099999999998" y="-1163.9933333333336" as="sourcePoint"/>
                        <mxPoint x="-2039.0699999999997" y="-870.6500000000001" as="targetPoint"/>
                    </mxGeometry>
                </mxCell>
                <mxCell id="439" value="data&lt;br&gt;inizio" style="edgeLabel;html=1;align=center;verticalAlign=middle;resizable=0;points=[];" vertex="1" connectable="0" parent="438">
                    <mxGeometry x="0.4791" y="1" relative="1" as="geometry">
                        <mxPoint x="-3" y="-28" as="offset"/>
                    </mxGeometry>
                </mxCell>
                <mxCell id="442" value="&lt;font color=&quot;#ff0000&quot;&gt;LIVE&lt;/font&gt;" style="whiteSpace=wrap;html=1;strokeColor=#FF0000;" vertex="1" parent="1">
                    <mxGeometry x="-2059.61" y="-839.91" width="80" height="40" as="geometry"/>
                </mxCell>
                <mxCell id="451" style="edgeStyle=none;shape=connector;rounded=1;fillStyle=auto;html=1;labelBackgroundColor=default;strokeColor=default;strokeWidth=1;fontFamily=Helvetica;fontSize=11;fontColor=default;endArrow=none;endFill=0;startSize=6;endSize=6;fillColor=#000000;startArrow=oval;startFill=0;" edge="1" parent="1" target="442">
                    <mxGeometry relative="1" as="geometry">
                        <mxPoint x="-1999.0358728147958" y="-801.0199999999998" as="targetPoint"/>
                        <mxPoint x="-1999.0699999999997" y="-860.6500000000001" as="sourcePoint"/>
                    </mxGeometry>
                </mxCell>
                <mxCell id="452" value="premium" style="edgeLabel;html=1;align=center;verticalAlign=middle;resizable=0;points=[];fontSize=11;fontFamily=Helvetica;fontColor=default;" vertex="1" connectable="0" parent="451">
                    <mxGeometry x="-0.2572" y="1" relative="1" as="geometry">
                        <mxPoint x="33" y="-8" as="offset"/>
                    </mxGeometry>
                </mxCell>
                <mxCell id="455" value="" style="endArrow=oval;html=1;fillStyle=auto;strokeWidth=1;startSize=6;endSize=6;fillColor=#000000;startArrow=none;startFill=0;endFill=0;" edge="1" parent="1" source="442">
                    <mxGeometry width="50" height="50" relative="1" as="geometry">
                        <mxPoint x="-2017.2804769412692" y="-829.91" as="sourcePoint"/>
                        <mxPoint x="-2059.07" y="-860.6500000000001" as="targetPoint"/>
                    </mxGeometry>
                </mxCell>
                <mxCell id="456" value="data&lt;br&gt;fine" style="edgeLabel;html=1;align=center;verticalAlign=middle;resizable=0;points=[];" vertex="1" connectable="0" parent="455">
                    <mxGeometry x="0.4791" y="1" relative="1" as="geometry">
                        <mxPoint x="-25" y="-6" as="offset"/>
                    </mxGeometry>
                </mxCell>
                <mxCell id="465" value="&lt;font color=&quot;#ff0000&quot;&gt;(0, N)&lt;/font&gt;" style="edgeStyle=none;html=1;endArrow=none;endFill=0;exitX=0.5;exitY=1;exitDx=0;exitDy=0;strokeColor=#FF0000;" edge="1" parent="1" target="468">
                    <mxGeometry x="0.6553" y="-20" relative="1" as="geometry">
                        <mxPoint as="offset"/>
                        <mxPoint x="-2020.5900000000001" y="-799.9099999999999" as="sourcePoint"/>
                    </mxGeometry>
                </mxCell>
                <mxCell id="466" value="&lt;font color=&quot;#ff0000&quot;&gt;AFFLUENZA&lt;/font&gt;" style="whiteSpace=wrap;html=1;strokeColor=#FF0000;" vertex="1" parent="1">
                    <mxGeometry x="-2060.2000000000003" y="-659.67" width="80" height="39.62" as="geometry"/>
                </mxCell>
                <mxCell id="467" value="&lt;font color=&quot;#ff0000&quot;&gt;(1, 1)&lt;/font&gt;" style="edgeStyle=none;html=1;endArrow=none;endFill=0;strokeColor=#FF0000;" edge="1" parent="1" source="468" target="466">
                    <mxGeometry x="-0.4543" y="-19" relative="1" as="geometry">
                        <mxPoint as="offset"/>
                    </mxGeometry>
                </mxCell>
                <mxCell id="468" value="&lt;font color=&quot;#ff0000&quot;&gt;media&lt;br&gt;spettatori&lt;/font&gt;" style="rhombus;whiteSpace=wrap;html=1;strokeColor=#FF0000;" vertex="1" parent="1">
                    <mxGeometry x="-2069.92" y="-750" width="100.61" height="60" as="geometry"/>
                </mxCell>
                <mxCell id="482" value="" style="endArrow=none;html=1;strokeColor=#000000;fontSize=11;fontColor=#FF0000;exitX=0;exitY=0.25;exitDx=0;exitDy=0;entryX=1;entryY=1;entryDx=0;entryDy=0;" edge="1" parent="1" source="466" target="483">
                    <mxGeometry width="50" height="50" relative="1" as="geometry">
                        <mxPoint x="-2109.61" y="-620.13" as="sourcePoint"/>
                        <mxPoint x="-2090" y="-670" as="targetPoint"/>
                    </mxGeometry>
                </mxCell>
                <mxCell id="483" value="" style="ellipse;whiteSpace=wrap;html=1;aspect=fixed;strokeColor=#000000;fontSize=11;fontColor=#FF0000;" vertex="1" parent="1">
                    <mxGeometry x="-2093.2700000000004" y="-675.26" width="5.13" height="5.13" as="geometry"/>
                </mxCell>
                <mxCell id="484" value="" style="endArrow=none;html=1;strokeColor=#FF0000;fontSize=11;fontColor=#FF0000;" edge="1" parent="1">
                    <mxGeometry width="50" height="50" relative="1" as="geometry">
                        <mxPoint x="-2040" y="-600" as="sourcePoint"/>
                        <mxPoint x="-2040" y="-620" as="targetPoint"/>
                    </mxGeometry>
                </mxCell>
                <mxCell id="485" value="" style="ellipse;whiteSpace=wrap;html=1;aspect=fixed;strokeColor=#FF0000;fontSize=11;fontColor=#FF0000;" vertex="1" parent="1">
                    <mxGeometry x="-2042.87" y="-599.74" width="5.74" height="5.74" as="geometry"/>
                </mxCell>
                <mxCell id="486" value="&lt;font style=&quot;font-size: 11px;&quot;&gt;numero &lt;br&gt;spettatori&lt;/font&gt;" style="text;html=1;align=center;verticalAlign=middle;resizable=0;points=[];autosize=1;strokeColor=none;fillColor=none;fontSize=11;fontColor=#FF0000;" vertex="1" parent="1">
                    <mxGeometry x="-2074.92" y="-599.74" width="70" height="40" as="geometry"/>
                </mxCell>
                <mxCell id="487" value="&lt;font style=&quot;font-size: 11px;&quot; color=&quot;#000000&quot;&gt;timestamp&lt;/font&gt;" style="text;html=1;align=center;verticalAlign=middle;resizable=0;points=[];autosize=1;strokeColor=none;fillColor=none;fontSize=10;fontColor=#FF0000;" vertex="1" parent="1">
                    <mxGeometry x="-2158.14" y="-689.6700000000001" width="70" height="30" as="geometry"/>
                </mxCell>
                <mxCell id="488" value="" style="endArrow=none;html=1;strokeColor=#000000;fontSize=10;fontColor=#FF0000;" edge="1" parent="1">
                    <mxGeometry width="50" height="50" relative="1" as="geometry">
                        <mxPoint x="-2080" y="-640" as="sourcePoint"/>
                        <mxPoint x="-2000" y="-670" as="targetPoint"/>
                        <Array as="points">
                            <mxPoint x="-2080" y="-670"/>
                        </Array>
                    </mxGeometry>
                </mxCell>
                <mxCell id="489" value="" style="shape=waypoint;fillStyle=solid;size=6;pointerEvents=1;points=[];fillColor=none;resizable=0;rotatable=0;perimeter=centerPerimeter;snapToPoint=1;strokeColor=#000000;fontSize=10;fontColor=#FF0000;" vertex="1" parent="1">
                    <mxGeometry x="-2089.92" y="-649.86" width="20" height="20" as="geometry"/>
                </mxCell>
                <mxCell id="490" value="" style="endArrow=none;html=1;fontSize=10;strokeColor=#0000CC;" edge="1" parent="1">
                    <mxGeometry width="50" height="50" relative="1" as="geometry">
                        <mxPoint x="-2070" y="-780" as="sourcePoint"/>
                        <mxPoint x="-2051" y="-800" as="targetPoint"/>
                    </mxGeometry>
                </mxCell>
                <mxCell id="491" value="" style="ellipse;whiteSpace=wrap;html=1;aspect=fixed;fontSize=10;strokeColor=#0000CC;" vertex="1" parent="1">
                    <mxGeometry x="-2073" y="-782.61" width="6.08" height="6.08" as="geometry"/>
                </mxCell>
                <mxCell id="492" value="&lt;font color=&quot;#0000cc&quot; style=&quot;font-size: 11px;&quot;&gt;affluenza &lt;br&gt;media&lt;/font&gt;" style="text;html=1;align=center;verticalAlign=middle;resizable=0;points=[];autosize=1;strokeColor=none;fillColor=none;fontSize=10;" vertex="1" parent="1">
                    <mxGeometry x="-2136.92" y="-789.05" width="70" height="40" as="geometry"/>
                </mxCell>
            </root>
        </mxGraphModel>
    </diagram>
</mxfile>